<svg xmlns="http://www.w3.org/2000/svg" viewBox="0 0 100 138" width="100" height="138">
<defs><linearGradient id="bg" x1="0" y1="0" x2="0" y2="1"><stop offset="0" stop-color="#274a2f"/><stop offset="1" stop-color="#1d3322"/></linearGradient></defs>
<path d="M8,4 H92 Q96,4 96,8 V88 Q96,100 50,116 Q4,100 4,88 V8 Q4,4 8,4 Z" fill="url(#bg)" stroke="#e0b84a" stroke-width="2.5"/>
<path d="M22,58 Q18,84 40,100" fill="none" stroke="#e0b84a" stroke-width="3" stroke-linecap="round"/><path d="M78,58 Q82,84 60,100" fill="none" stroke="#e0b84a" stroke-width="3" stroke-linecap="round"/>
  <ellipse cx="23" cy="62" rx="3" ry="6" fill="#e0b84a" transform="rotate(-30 23 62)"/><ellipse cx="77" cy="62" rx="3" ry="6" fill="#e0b84a" transform="rotate(30 77 62)"/><ellipse cx="26.2" cy="70" rx="3" ry="6" fill="#e0b84a" transform="rotate(-20 26.2 70)"/><ellipse cx="73.8" cy="70" rx="3" ry="6" fill="#e0b84a" transform="rotate(20 73.8 70)"/><ellipse cx="29.4" cy="78" rx="3" ry="6" fill="#e0b84a" transform="rotate(-10 29.4 78)"/><ellipse cx="70.6" cy="78" rx="3" ry="6" fill="#e0b84a" transform="rotate(10 70.6 78)"/><ellipse cx="32.6" cy="86" rx="3" ry="6" fill="#e0b84a" transform="rotate(0 32.6 86)"/><ellipse cx="67.4" cy="86" rx="3" ry="6" fill="#e0b84a" transform="rotate(0 67.4 86)"/><ellipse cx="35.8" cy="94" rx="3" ry="6" fill="#e0b84a" transform="rotate(10 35.8 94)"/><ellipse cx="64.2" cy="94" rx="3" ry="6" fill="#e0b84a" transform="rotate(-10 64.2 94)"/><polygon points="50.00,30.00 54.23,40.18 65.22,41.06 56.85,48.22 59.40,58.94 50.00,53.20 40.60,58.94 43.15,48.22 34.78,41.06 45.77,40.18" fill="#e0b84a" stroke="#a8841c" stroke-width="1.5"/>
<text x="50" y="133" text-anchor="middle" font-family="Arial, Helvetica, sans-serif" font-weight="700" font-size="15" fill="#e0b84a" letter-spacing="0.5">BGen</text>
</svg>