<svg xmlns="http://www.w3.org/2000/svg" viewBox="0 0 100 138" width="100" height="138">
<defs><linearGradient id="bg" x1="0" y1="0" x2="0" y2="1"><stop offset="0" stop-color="#274a2f"/><stop offset="1" stop-color="#1d3322"/></linearGradient></defs>
<path d="M8,4 H92 Q96,4 96,8 V88 Q96,100 50,116 Q4,100 4,88 V8 Q4,4 8,4 Z" fill="url(#bg)" stroke="#e0b84a" stroke-width="2.5"/>
<path d="M18,34.400000000000006 L50,12 L82,34.400000000000006 L82,48.400000000000006 L50,26 L18,48.400000000000006 Z" fill="#e0b84a" stroke="#a8841c" stroke-width="1.5"/><path d="M18,49.400000000000006 L50,27 L82,49.400000000000006 L82,63.400000000000006 L50,41 L18,63.400000000000006 Z" fill="#e0b84a" stroke="#a8841c" stroke-width="1.5"/><path d="M18,64.4 L50,42 L82,64.4 L82,78.4 L50,56 L18,78.4 Z" fill="#e0b84a" stroke="#a8841c" stroke-width="1.5"/><path d="M18,64 Q50,90.4 82,64 L82,76 Q50,102.4 18,76 Z" fill="#e0b84a" stroke="#a8841c" stroke-width="1.5"/><path d="M18,76 Q50,102.4 82,76 L82,88 Q50,114.4 18,88 Z" fill="#e0b84a" stroke="#a8841c" stroke-width="1.5"/><path d="M18,88 Q50,114.4 82,88 L82,100 Q50,126.4 18,100 Z" fill="#e0b84a" stroke="#a8841c" stroke-width="1.5"/>
<text x="50" y="133" text-anchor="middle" font-family="Arial, Helvetica, sans-serif" font-weight="700" font-size="15" fill="#e0b84a" letter-spacing="0.5">SAj</text>
</svg>